<svg width="239" height="26" viewBox="0 0 239 26" fill="none" xmlns="http://www.w3.org/2000/svg">
<path d="M68.3409 11.089C68.017 8.67706 66.0738 7.18558 62.767 7.18558C59.4176 7.18558 57.2102 8.73672 57.2187 11.2594C57.2102 13.2197 58.446 14.4896 61.0028 15.0009L63.2698 15.4526C64.4119 15.6827 64.9318 16.1004 64.9488 16.7566C64.9318 17.5322 64.088 18.0861 62.8181 18.0861C61.5227 18.0861 60.6619 17.5322 60.4403 16.4668L56.8693 16.6543C57.2102 19.16 59.3409 20.7026 62.8096 20.7026C66.2016 20.7026 68.6306 18.9725 68.6392 16.3901C68.6306 14.4981 67.3948 13.3646 64.8551 12.8447L62.4857 12.3674C61.267 12.1032 60.8153 11.6856 60.8238 11.0549C60.8153 10.2708 61.7016 9.75944 62.8266 9.75944C64.088 9.75944 64.838 10.4498 65.017 11.2935L68.3409 11.089Z" fill="#F8F8F8"/>
<path d="M70.9254 25.356H74.5561V18.3504H74.6668C75.1697 19.4413 76.2691 20.66 78.3828 20.66C81.3657 20.66 83.6924 18.2992 83.6924 13.9185C83.6924 9.41854 81.2634 7.18558 78.3913 7.18558C76.2009 7.18558 75.1526 8.48956 74.6668 9.5549H74.5049V7.35603H70.9254V25.356ZM74.4793 13.9015C74.4793 11.5663 75.468 10.0748 77.2322 10.0748C79.0305 10.0748 79.985 11.6344 79.985 13.9015C79.985 16.1856 79.0134 17.7708 77.2322 17.7708C75.485 17.7708 74.4793 16.2367 74.4793 13.9015Z" fill="#F8F8F8"/>
<path d="M89.8458 20.6941C91.7805 20.6941 93.0333 19.8504 93.6725 18.6316H93.7748V20.4469H97.218V11.6174C97.218 8.49808 94.5759 7.18558 91.6612 7.18558C88.5248 7.18558 86.4623 8.68558 85.9595 11.0719L89.3174 11.3447C89.5646 10.4754 90.3401 9.83615 91.6441 9.83615C92.8799 9.83615 93.5873 10.4583 93.5873 11.5322V11.5833C93.5873 12.4271 92.6924 12.5379 90.4168 12.7594C87.8259 12.9981 85.4992 13.8674 85.4992 16.7907C85.4992 19.3816 87.3487 20.6941 89.8458 20.6941ZM90.8856 18.1884C89.7691 18.1884 88.968 17.6685 88.968 16.6714C88.968 15.6487 89.8117 15.1458 91.0901 14.9668C91.8828 14.856 93.1782 14.6685 93.6129 14.3788V15.768C93.6129 17.1401 92.4793 18.1884 90.8856 18.1884Z" fill="#F8F8F8"/>
<path d="M105.95 20.7026C109.435 20.7026 111.626 18.6572 111.796 15.6486H108.37C108.157 17.0464 107.236 17.8305 105.992 17.8305C104.296 17.8305 103.197 16.4072 103.197 13.9015C103.197 11.4299 104.305 10.0151 105.992 10.0151C107.322 10.0151 108.174 10.893 108.37 12.1969H111.796C111.643 9.17138 109.35 7.18558 105.932 7.18558C101.961 7.18558 99.5063 9.93842 99.5063 13.9526C99.5063 17.9327 101.918 20.7026 105.95 20.7026Z" fill="#F8F8F8"/>
<path d="M120.087 20.7026C123.325 20.7026 125.507 19.1259 126.018 16.6969L122.66 16.4754C122.294 17.4725 121.356 17.9924 120.146 17.9924C118.331 17.9924 117.18 16.7907 117.18 14.839V14.8305H126.095V13.8333C126.095 9.38445 123.402 7.18558 119.942 7.18558C116.089 7.18558 113.592 9.92138 113.592 13.9611C113.592 18.1117 116.055 20.7026 120.087 20.7026ZM117.18 12.5805C117.257 11.089 118.391 9.89581 120.001 9.89581C121.578 9.89581 122.669 11.0208 122.678 12.5805H117.18Z" fill="#F8F8F8"/>
<path d="M135.428 7.35603H132.964V4.21967H129.334V7.35603H127.544V10.0833H129.334V16.9015C129.317 19.4668 131.064 20.7367 133.697 20.6259C134.635 20.5918 135.3 20.4043 135.666 20.285L135.095 17.5833C134.916 17.6174 134.533 17.7026 134.192 17.7026C133.467 17.7026 132.964 17.4299 132.964 16.4242V10.0833H135.428V7.35603Z" fill="#F8F8F8"/>
<path d="M137.793 20.4469H141.423V13.0407C141.423 11.4299 142.599 10.3219 144.202 10.3219C144.704 10.3219 145.395 10.4072 145.736 10.518V7.29638C145.412 7.21967 144.96 7.16853 144.594 7.16853C143.128 7.16853 141.926 8.02081 141.449 9.64013H141.312V7.35603H137.793V20.4469Z" fill="#F8F8F8"/>
<path d="M150.971 20.6941C152.905 20.6941 154.158 19.8504 154.798 18.6316H154.9V20.4469H158.343V11.6174C158.343 8.49808 155.701 7.18558 152.786 7.18558C149.65 7.18558 147.587 8.68558 147.084 11.0719L150.442 11.3447C150.69 10.4754 151.465 9.83615 152.769 9.83615C154.005 9.83615 154.712 10.4583 154.712 11.5322V11.5833C154.712 12.4271 153.817 12.5379 151.542 12.7594C148.951 12.9981 146.624 13.8674 146.624 16.7907C146.624 19.3816 148.474 20.6941 150.971 20.6941ZM152.011 18.1884C150.894 18.1884 150.093 17.6685 150.093 16.6714C150.093 15.6487 150.937 15.1458 152.215 14.9668C153.008 14.856 154.303 14.6685 154.738 14.3788V15.768C154.738 17.1401 153.604 18.1884 152.011 18.1884Z" fill="#F8F8F8"/>
<path d="M172.896 7.35603H169.052L166.342 16.7225H166.205L163.486 7.35603H159.651L164.228 20.4469H168.319L172.896 7.35603Z" fill="#F8F8F8"/>
<path d="M180.274 20.7026C183.513 20.7026 185.695 19.1259 186.206 16.6969L182.848 16.4754C182.481 17.4725 181.544 17.9924 180.334 17.9924C178.518 17.9924 177.368 16.7907 177.368 14.839V14.8305H186.283V13.8333C186.283 9.38445 183.589 7.18558 180.129 7.18558C176.277 7.18558 173.78 9.92138 173.78 13.9611C173.78 18.1117 176.243 20.7026 180.274 20.7026ZM177.368 12.5805C177.445 11.089 178.578 9.89581 180.189 9.89581C181.766 9.89581 182.856 11.0208 182.865 12.5805H177.368Z" fill="#F8F8F8"/>
<path d="M192.283 2.9924H188.652V20.4469H192.283V2.9924Z" fill="#F8F8F8"/>
<path d="M195.191 20.4469H198.822V7.35603H195.191V20.4469ZM197.015 5.66853C198.097 5.66853 198.984 4.84183 198.984 3.82763C198.984 2.82194 198.097 1.99524 197.015 1.99524C195.941 1.99524 195.055 2.82194 195.055 3.82763C195.055 4.84183 195.941 5.66853 197.015 5.66853Z" fill="#F8F8F8"/>
<path d="M205.361 12.8788C205.369 11.1913 206.375 10.2026 207.841 10.2026C209.298 10.2026 210.176 11.1572 210.168 12.7594V20.4469H213.798V12.1117C213.798 9.06058 212.008 7.18558 209.281 7.18558C207.338 7.18558 205.932 8.14013 205.344 9.66569H205.19V7.35603H201.73V20.4469H205.361V12.8788Z" fill="#F8F8F8"/>
<path d="M222.557 25.6288C226.299 25.6288 228.958 23.9242 228.958 20.5748V7.35603H225.353V9.5549H225.217C224.731 8.48956 223.665 7.18558 221.475 7.18558C218.603 7.18558 216.174 9.41854 216.174 13.8759C216.174 18.231 218.535 20.2594 221.484 20.2594C223.572 20.2594 224.739 19.2111 225.217 18.1288H225.37V20.5236C225.37 22.3219 224.219 23.0208 222.643 23.0208C221.04 23.0208 220.231 22.3219 219.932 21.5293L216.575 21.981C217.009 24.0435 219.029 25.6288 222.557 25.6288ZM222.634 17.5322C220.853 17.5322 219.881 16.1174 219.881 13.8589C219.881 11.6344 220.836 10.0748 222.634 10.0748C224.398 10.0748 225.387 11.5663 225.387 13.8589C225.387 16.1685 224.381 17.5322 222.634 17.5322Z" fill="#F8F8F8"/>
<path d="M236.571 20.6685C237.662 20.6685 238.608 19.7566 238.616 18.6231C238.608 17.5066 237.662 16.5947 236.571 16.5947C235.446 16.5947 234.517 17.5066 234.526 18.6231C234.517 19.7566 235.446 20.6685 236.571 20.6685Z" fill="#FF57B2"/>
<path d="M9.88103 0L0 11.5045L9.88103 23.007L12.2174 19.3298L5.55897 11.5025L12.2174 3.67523L9.88103 0ZM14.2051 22.7323H18.5415L25.4359 0.211919H21.0974L14.2051 22.7323ZM30.119 0L27.7826 3.6772L34.441 11.5045L27.7826 19.3318L30.119 23.009L40 11.5065L30.119 0Z" fill="#FF57B2"/>
</svg>
